<svg xmlns="http://www.w3.org/2000/svg" enable-background="new 0 0 64 64" viewBox="0 0 64 64" id="TopRecommend"><path d="M54.94,35.77c0.96-1.06,2.05-2.26,2.05-3.77s-1.09-2.71-2.05-3.77c-0.62-0.69-1.26-1.4-1.42-2
			c-0.18-0.64,0.03-1.61,0.23-2.54c0.3-1.44,0.62-2.93-0.11-4.19c-0.74-1.27-2.26-1.76-3.61-2.2c-0.9-0.29-1.82-0.59-2.28-1.05
			c-0.46-0.46-0.76-1.38-1.05-2.28c-0.44-1.35-0.93-2.87-2.2-3.61c-1.26-0.73-2.75-0.41-4.19-0.11c-0.93,0.2-1.89,0.41-2.54,0.23
			c-0.6-0.16-1.31-0.8-2-1.42C34.71,8.1,33.51,7.02,32,7.02s-2.71,1.08-3.77,2.04c-0.69,0.62-1.4,1.26-2,1.42
			c-0.64,0.18-1.61-0.03-2.54-0.23c-1.44-0.3-2.93-0.62-4.19,0.11c-1.27,0.74-1.76,2.26-2.2,3.61c-0.29,0.9-0.59,1.82-1.05,2.28
			c-0.46,0.46-1.38,0.76-2.28,1.05c-1.35,0.44-2.87,0.93-3.61,2.2c-0.73,1.26-0.41,2.75-0.11,4.19c0.2,0.93,0.41,1.9,0.23,2.54
			c-0.16,0.6-0.8,1.31-1.42,2C8.1,29.29,7.01,30.49,7.01,32s1.09,2.71,2.05,3.77c0.62,0.69,1.26,1.4,1.42,2
			c0.18,0.64-0.03,1.61-0.23,2.54c-0.3,1.44-0.62,2.93,0.11,4.19c0.74,1.27,2.26,1.76,3.61,2.2c0.9,0.29,1.82,0.59,2.28,1.05
			c0.46,0.46,0.76,1.38,1.05,2.28c0.44,1.35,0.93,2.87,2.2,3.61c1.26,0.73,2.75,0.41,4.19,0.11c0.93-0.2,1.89-0.41,2.54-0.23
			c0.6,0.16,1.31,0.8,2,1.42c1.06,0.96,2.26,2.04,3.77,2.04s2.71-1.08,3.77-2.04c0.69-0.62,1.4-1.26,2-1.42
			c0.64-0.17,1.61,0.03,2.54,0.23c1.44,0.3,2.93,0.62,4.19-0.11c1.27-0.74,1.76-2.26,2.2-3.61c0.29-0.9,0.59-1.82,1.05-2.28
			c0.46-0.46,1.38-0.76,2.28-1.05c1.35-0.44,2.87-0.93,3.61-2.2c0.73-1.26,0.41-2.75,0.11-4.19c-0.2-0.93-0.41-1.9-0.23-2.54
			C53.68,37.17,54.32,36.46,54.94,35.77z M32,47c-8.27,0-15-6.73-15-15c0-8.27,6.73-15,15-15s15,6.73,15,15C47,40.27,40.27,47,32,47
			z" fill="#d85b53" class="color000000 svgShape"></path><path d="M40.51,28.01c-1-0.41-2.32-0.49-3.26-0.48l0.24-4.51c0.05-1-0.49-1.95-1.35-2.35c-0.65-0.32-1.26-0.36-1.84-0.14
			c-1.36,0.53-2.07,2.34-3.38,5.64c-0.91,2.31-2.11,3.14-2.93,3.44c-0.53-0.85-1.47-1.42-2.54-1.42h-1.41c-1.66,0-3,1.34-3,3v7.42
			c0,1.65,1.34,3,3,3h1.41c1.23,0,2.28-0.74,2.75-1.8c0.76,0.1,1.52,0.33,2.26,0.68c0.96,0.45,1.95,0.92,3.19,0.92h4.23
			c2.51,0,4.34-2.12,4.9-5.68C43.01,34.23,43.54,29.26,40.51,28.01z M40.8,35.42c-0.15,0.94-0.79,3.99-2.92,3.99h-4.23
			c-0.79,0-1.5-0.33-2.4-0.76c-0.89-0.43-1.83-0.7-2.8-0.83v-6.26c1.25-0.39,3.09-1.5,4.33-4.65c0.8-2.02,1.7-4.3,2.24-4.51
			c0.03-0.01,0.12,0,0.26,0.07c0.13,0.07,0.23,0.26,0.22,0.44l-0.3,5.62c-0.02,0.3,0.09,0.58,0.31,0.78c0.21,0.2,0.51,0.3,0.79,0.27
			c0.62-0.06,2.45-0.14,3.45,0.28C40.93,30.35,41.18,33.03,40.8,35.42z" fill="#d85b53" class="color000000 svgShape"></path></svg>