<svg xmlns="http://www.w3.org/2000/svg" width="32" height="32" id="magnifier"><path fill="none" stroke="#000" stroke-linecap="round" stroke-linejoin="round" d="m17.65 20.79 8.67 8.66A1.87 1.87 0 0 0 29 26.81l-8.7-8.67a7.9 7.9 0 0 1-2.65 2.65Z"></path><path fill="none" stroke="#000" stroke-linecap="round" stroke-linejoin="round" d="M12.84 21.82a9.43 9.43 0 0 0 8.05-4.52 9.34 9.34 0 0 0 1.39-4.91 9.44 9.44 0 1 0-9.44 9.43Z"></path><path fill="none" stroke="#000" stroke-linecap="round" stroke-linejoin="round" d="M11.33 6.27A6.05 6.05 0 0 0 8.44 7.9a6.14 6.14 0 1 0 8.68 0"></path></svg>