<svg xmlns="http://www.w3.org/2000/svg" viewBox="0 0 24 24" id="trending"><g data-name="Layer 2"><path d="M12,22.75c-4.08594,0-7.06445-1.7793-8.17187-4.88135C2.12451,13.0957,5.14551,6.63916,11.5249,1.41943a.75.75,0,0,1,1.00537.0503c.15235.15185,3.25879,3.30615,3.37744,6.98242a5.97516,5.97516,0,0,0,1.42139-1.7876A.74995.74995,0,0,1,18.66162,6.647c.17236.32276,4.18164,7.95508,1.36133,12.65528C18.65039,21.58984,15.95068,22.75,12,22.75ZM11.92529,3.04053C5.68945,8.38086,4.05615,14.04443,5.24121,17.36426,6.13525,19.87012,8.53564,21.25,12,21.25c3.38721,0,5.65381-.915,6.73682-2.71973,1.79882-2.998.11523-7.78173-.84082-9.98974a8.483,8.483,0,0,1-2.56055,2.13037.75013.75013,0,0,1-1.063-.853C14.96289,7.05566,12.88428,4.18164,11.92529,3.04053Z"></path><path d="M12,22.75A3.7541,3.7541,0,0,1,8.25,19c0-1.79932,2.60986-5.669,3.13281-6.42627a.77859.77859,0,0,1,1.23438,0C13.14014,13.33105,15.75,17.20068,15.75,19A3.7541,3.7541,0,0,1,12,22.75Zm0-8.394C10.92041,16.043,9.75,18.18066,9.75,19a2.25,2.25,0,0,0,4.5,0C14.25,18.18018,13.07959,16.04248,12,14.356Z"></path></g></svg>