<svg xmlns="http://www.w3.org/2000/svg" viewBox="0 0 30 30" id="Fire"><path fill="#d85b53" d="M25.958 17.886l-.021-.289c-.335-4.458-2.259-7.265-3.955-9.742C20.382 5.52 19 3.502 19 .5a.5.5 0 0 0-.795-.404c-2.964 2.165-5.44 5.573-6.161 8.48-.607 2.452-.968 4.691-1.033 6.387-2.669-.428-2.999-4.325-3.012-4.5a.5.5 0 0 0-.737-.402c-.125.068-3.07 1.735-3.249 8.087C4 18.359 4 18.57 4 18.782 4 24.968 8.935 30 15 30h.025C21.08 29.986 26 24.96 26 18.782c0-.313-.021-.605-.042-.896zM11 24.696c0-.081 0-.161.005-.258.031-1.15.27-1.892.511-2.354.294.82.896 1.64 1.984 1.64a.5.5 0 0 0 .5-.5c0-.717.156-1.787.428-2.935.211-.891.86-1.944 1.677-2.773.223 1.05.765 1.876 1.292 2.682.712 1.086 1.448 2.21 1.578 4.015l.008.125c.008.116.017.232.017.358C19 27.069 17.206 29 15 29s-4-1.93-4-4.304z" class="color303c42 svgShape"></path></svg>