<svg xmlns="http://www.w3.org/2000/svg" viewBox="0 0 512 512" id="movies"><path d="M403.686 223.341h-240.07l156.001-69.502.005-.002.005-.002 62.448-27.822a8 8 0 0 0 4.051-10.564l-20.693-46.447a8 8 0 0 0-10.563-4.052l-62.448 27.821-.006.003-.005.003-187.353 83.469a8 8 0 0 0-4.052 10.563l20.694 46.448a8.024 8.024 0 0 0 .503.936v190.945a22.63 22.63 0 0 0 22.605 22.605h244.273a22.63 22.63 0 0 0 22.605-22.605V231.341a8 8 0 0 0-8-8Zm-8 50.85h-52.37v-34.85h52.37Zm-120.741 0v-34.85h52.37v34.849Zm-66.78 0v-34.85h50.78v34.849Zm-69.962 0v-34.85h53.962v34.849Zm90.965-135.722 14.182 31.832-46.384 20.665-14.182-31.832Zm62.452-27.824 14.183 31.832-47.838 21.313-14.182-31.832Zm76.635 4.008-47.837 21.313-14.182-31.832 47.838-21.313Zm-249.378 72.952 49.292-21.96 14.182 31.833-49.292 21.96Zm270.204 244.138H144.808a6.612 6.612 0 0 1-6.604-6.605V290.19h257.482v134.948a6.612 6.612 0 0 1-6.605 6.605Z"></path><path d="M172.649 325.36h188.592v16H172.649zM325.55 371.098h27.691v16H325.55zM175.55 371.098h31v16h-31zM225.55 371.098h31v16h-31zM275.55 371.098h31v16h-31z"></path></svg>