<svg xmlns="http://www.w3.org/2000/svg" viewBox="0 0 512 512" id="tv"><path fill="#404040" d="M424.56 109.51H87.44a26 26 0 0 0-25.91 25.91v184.89a25.94 25.94 0 0 0 25.91 25.91h138.28v41.27h-69.31a7.5 7.5 0 1 0 0 15h199.18a7.5 7.5 0 0 0 0-15h-69.31v-41.27h138.28a25.94 25.94 0 0 0 25.91-25.91V135.42a26 26 0 0 0-25.91-25.91Zm-153.28 278h-30.56v-41.29h30.56ZM87.44 331.22a10.92 10.92 0 0 1-10.91-10.91V135.42a10.93 10.93 0 0 1 10.91-10.91h337.12a10.93 10.93 0 0 1 10.91 10.91v184.89a10.92 10.92 0 0 1-10.91 10.91Z"></path><path fill="#404040" d="m99 167.79 23.36-23.37c6.78-7.25-3.33-17.39-10.6-10.6l-23.33 23.36c-6.77 7.26 3.34 17.39 10.57 10.61zm43.08-29.48-49.16 49.16c-4.74 4.6-1.23 12.92 5.3 12.8a7.48 7.48 0 0 0 5.31-2.2l49.16-49.16c6.77-7.24-3.33-17.39-10.61-10.6z"></path></svg>