<svg xmlns="http://www.w3.org/2000/svg" data-name="Layer 1" viewBox="0 0 128 128" id="actors"><path d="M75,51.00714a7.98985,7.98985,0,0,0-6.51782,3.37762,8.01733,8.01733,0,0,0-8.96436,0A7.98639,7.98639,0,1,0,61,59.00635c0-.22314-.0155-.4425-.03351-.66107a1.96939,1.96939,0,0,0,.2049-.16748,4.00537,4.00537,0,0,1,5.65723,0,1.97725,1.97725,0,0,0,.2049.16748c-.018.21857-.03351.43793-.03351.66107a8,8,0,1,0,8-7.99921ZM53,63.006a3.9996,3.9996,0,1,1,4-3.99963A4.00439,4.00439,0,0,1,53,63.006Zm22,0a3.9996,3.9996,0,1,1,4-3.99963A4.00439,4.00439,0,0,1,75,63.006Z"></path><path d="M40.54736,70.73468c1.65466,1.86627,3.09833,3.64453,4.39917,5.28473L43.27,83.46094a12.64131,12.64131,0,0,1-7.74219,9.007l-19.53076,7.62762A16.59111,16.59111,0,0,0,5.73193,112.30426L3.03955,125.60278A2.00068,2.00068,0,0,0,4.603,127.96,2.03214,2.03214,0,0,0,5.002,128a2.00107,2.00107,0,0,0,1.9585-1.60339l2.69238-13.29846a12.60594,12.60594,0,0,1,7.7998-9.2774L32.53448,97.9306,42.10254,126.632a2,2,0,0,0,3.79492-1.26453L36.2652,96.47357l.7182-.28046a16.70257,16.70257,0,0,0,2.54614-1.25952C41.874,101.33032,51.782,106.00171,64,106.00171s22.12616-4.67145,24.47052-11.06824a16.705,16.705,0,0,0,2.54657,1.25964l.71777.28027-9.63232,28.894a2,2,0,1,0,3.79492,1.26453l9.56812-28.70142,15.0813,5.8902a12.60556,12.60556,0,0,1,7.80029,9.2774l2.69238,13.29846A2.00107,2.00107,0,0,0,122.998,128a2.02845,2.02845,0,0,0,.39893-.04,2.00068,2.00068,0,0,0,1.56348-2.35718l-2.69238-13.29852a16.59073,16.59073,0,0,0-10.26562-12.20874L92.47217,92.4679a12.64131,12.64131,0,0,1-7.74219-9.007l-1.666-7.395c1.31055-1.65344,2.765-3.44666,4.43555-5.3313,2.79-3.147,4.54993-8.55444,5.24292-16.0824.80579-1.89154,7.94324-19.13861,5.88745-31.73169-.81885-5.01611-2.76514-8.58264-5.78467-10.601a10.52719,10.52719,0,0,0-6.0376-1.7215C83.606,4.59381,78.75684,2.09308,67.92529.58832c-20.88867-2.90448-34.6875,5.03711-37.856,21.782-3.72473,19.687,3.28436,30.21356,5.06146,32.50116C35.67487,62.12,37.41132,67.19714,40.54736,70.73468ZM84.98615,92.13141c-.1474,4.7915-8.53558,9.87067-20.98615,9.87067s-20.83856-5.079-20.98615-9.87054a16.63659,16.63659,0,0,0,4.15851-7.79175L48.139,80.049c4.31116,5.319,8.15991,8.95435,15.80042,8.95435h.168c7.619,0,11.468-3.61511,15.76379-8.909l.95642,4.24542A16.63647,16.63647,0,0,0,84.98615,92.13141Zm-.4798-24.0498c-2.26758,2.55786-4.12793,4.92383-5.769,7.01154-5.0249,6.3905-7.79248,9.91064-14.62988,9.91064h-.168c-6.83643,0-9.60449-3.52014-14.62891-9.91016-1.6416-2.08771-3.50244-4.45416-5.77-7.012-2.50946-2.83105-3.92511-7.10608-4.40924-13.34235,4.82391-4.87421,5.62817-12.13885,5.4151-17.51245A1.76606,1.76606,0,0,1,45.23,35.73572a1.52647,1.52647,0,0,1,1.40576-.2627c15.74414,4.81012,27.05811,2.759,33.77832.19189a1.668,1.668,0,0,1,2.27588,1.63849A24.82224,24.82224,0,0,0,88.7204,54.67365C88.09393,61.04651,86.65033,65.66309,84.50635,68.0816ZM34,23.11346C36.96,7.469,49.45117,4.01233,59.90723,4.01233a54.70094,54.70094,0,0,1,7.46729.53754C78.604,6.10974,81.521,8.58948,83.81152,13.55872a2.0208,2.0208,0,0,0,2.25537,1.11365,6.38183,6.38183,0,0,1,4.606,1.00677c2.03271,1.387,3.38135,4.0401,4.00928,7.88593,1.44824,8.87213-2.38135,20.912-4.4502,26.5257A20.97311,20.97311,0,0,1,86.686,37.47235a5.66713,5.66713,0,0,0-7.69971-5.5434c-6.13379,2.343-16.52344,4.19635-31.18164-.2807a5.50185,5.50185,0,0,0-5.01758.92029,5.795,5.795,0,0,0-2.23779,4.81738c.165,4.15149-.32959,9.5943-3.30176,13.45325C35.09131,47.18622,31.17236,38.05676,34,23.11346Z"></path><path d="M105 125.99969v-3.99957a2 2 0 00-4 0v3.99957a2 2 0 004 0zM23 122.00012v3.99957a2 2 0 004 0v-3.99957a2 2 0 00-4 0zM69.65723 72.66223a8.0124 8.0124 0 01-11.31445 0 1.99968 1.99968 0 00-2.82812 2.82782 12.01525 12.01525 0 0016.9707 0 1.99968 1.99968 0 00-2.82812-2.82782zM51.5 49.00732h4a1.99979 1.99979 0 100-3.99957h-4a1.99979 1.99979 0 100 3.99957zM72.5 49.00732h4a1.99979 1.99979 0 100-3.99957h-4a1.99979 1.99979 0 100 3.99957z"></path><path d="M67.53564 70.54034a2 2 0 00-2.8291-2.82782.9986.9986 0 01-1.41309 0 2 2 0 00-2.8291 2.82782 4.99965 4.99965 0 007.07129 0zM18 58.00647a2.00109 2.00109 0 00-1.75488 1.03992l-3.25439 5.95007L7.04 68.25055a2.00024 2.00024 0 000 3.5094L12.99072 75.014l3.25439 5.95007a2.0006 2.0006 0 003.50977 0L23.00928 75.014 28.96 71.75995a2.00024 2.00024 0 000-3.5094l-5.95068-3.25409-3.25439-5.95007A2.00109 2.00109 0 0018 58.00647zm2.57617 10.2182L23.832 70.00525l-3.25586 1.78058a1.99835 1.99835 0 00-.79541.79535L18 75.83673l-1.78076-3.25555a1.99835 1.99835 0 00-.79541-.79535L12.168 70.00525l3.25586-1.78058a1.998 1.998 0 00.79541-.79535L18 64.17383l1.78076 3.25549A1.998 1.998 0 0020.57617 68.22467zM1.04 49.76215l4.65771 2.54712 2.54736 4.65723a2.0006 2.0006 0 003.50977 0l2.54736-4.65723L18.96 49.76215a2.00024 2.00024 0 000-3.5094l-4.65771-2.54712L11.75488 39.0484a2.0006 2.0006 0 00-3.50977 0L5.69775 43.70563 1.04 46.25275a2.00024 2.00024 0 000 3.5094zm7.09131-2.82831a2.00172 2.00172 0 00.79492-.79486L10 44.17529 11.07373 46.139a2.00172 2.00172 0 00.79492.79486l1.96387 1.07361-1.96387 1.07361a2.00211 2.00211 0 00-.79492.79486L10 51.8396 8.92627 49.87592a2.00211 2.00211 0 00-.79492-.79486L6.16748 48.00745zM98 70.00525a2.00079 2.00079 0 001.04 1.7547l5.95068 3.25409 3.25439 5.95007a2.0006 2.0006 0 003.50977 0l3.25439-5.95007L120.96 71.75995a2.00024 2.00024 0 000-3.5094l-5.95068-3.25409-3.25439-5.95007a2.00066 2.00066 0 00-3.50977 0l-3.25439 5.95007L99.04 68.25055A2.00079 2.00079 0 0098 70.00525zm9.42383-1.78058a1.998 1.998 0 00.79541-.79535L110 64.17383l1.78076 3.25549a1.998 1.998 0 00.79541.79535l3.25586 1.78058-3.25586 1.78058a1.99835 1.99835 0 00-.79541.79535L110 75.83673l-1.78076-3.25555a1.99835 1.99835 0 00-.79541-.79535L104.168 70.00525zM126.96 46.25275l-4.65771-2.54712-2.54736-4.65723a2.00038 2.00038 0 00-3.50977.00049l-2.54687 4.65674-4.65771 2.54712a1.99979 1.99979 0 000 3.5094l4.65771 2.54712 2.54688 4.65674a2.00038 2.00038 0 003.50977.00049l2.54736-4.65723L126.96 49.76215a2.00024 2.00024 0 000-3.5094zm-7.09131 2.82831a2.00211 2.00211 0 00-.79492.79486L118 51.83911l-1.07324-1.96271a1.99835 1.99835 0 00-.79541-.79535L114.168 48.00745l1.96338-1.07361a1.998 1.998 0 00.79541-.79535L118 44.17578l1.07373 1.9632a2.00172 2.00172 0 00.79492.79486l1.96387 1.07361z"></path></svg>