<svg xmlns="http://www.w3.org/2000/svg" data-name="Layer 1" viewBox="0 0 128 128" id="porn"><path d="M109.63464 39.25281l-2.256-.34607-.98956-2.11688a.42909.42909 0 00-.7782 0l-.98956 2.11688-2.256.34607a.432.432 0 00-.24274.728l1.64661 1.69452-.38409 2.36432a.43015.43015 0 00.63214.4472L106 43.38635l1.98273 1.10046a.43015.43015 0 00.63214-.4472l-.38409-2.36432 1.64661-1.69452A.432.432 0 00109.63464 39.25281zM25.63464 39.25281l-2.256-.34607-.98956-2.11688a.42909.42909 0 00-.7782 0l-.98956 2.11688-2.256.34607a.432.432 0 00-.24274.728l1.64661 1.69452-.38409 2.36432a.43015.43015 0 00.63214.4472L22 43.38635l1.98273 1.10046a.43015.43015 0 00.63214-.4472l-.38409-2.36432 1.64661-1.69452A.432.432 0 0025.63464 39.25281zM25.63464 77.07727l-2.256-.34607-.98956-2.11688a.42909.42909 0 00-.7782 0l-.98956 2.11688-2.256.34607a.432.432 0 00-.24274.728l1.64661 1.69446-.38409 2.36438a.43011.43011 0 00.63214.44714L22 81.21082l1.98273 1.10046a.43011.43011 0 00.63214-.44714l-.38409-2.36438 1.64661-1.69446A.432.432 0 0025.63464 77.07727zM57 36.96387V33a2 2 0 00-4 0v3.96387c0 .585-.14551.83691-.2041.87793-.07178.02441-12.07422 5.79785-12.21631 5.86621C34.3125 46.60547 31 50.98047 31 56.35938v4.37207a2 2 0 004 0V56.35938c0-4.68164 3.94727-7.48926 7.2583-9.02051l-.001-.002c.34473-.16309 2.08643-1.002 11.97607-5.7627A4.61565 4.61565 0 0057 36.96387zM95 62.73145a2.0001 2.0001 0 002-2V56.35938c0-5.37891-3.3125-9.75391-9.55664-12.64062-.165-.0791-12.18994-5.8623-12.26172-5.88672A1.44447 1.44447 0 0175 36.96387V33a2 2 0 00-4 0v3.96387a4.61565 4.61565 0 002.7666 4.61035c9.88965 4.76074 11.63135 5.59961 11.97607 5.7627l-.001.002C89.05273 48.87012 93 51.67773 93 56.35938v4.37207A2.0001 2.0001 0 0095 62.73145zM51.8999 87a13.875 13.875 0 0012.10846-7.60876 13.88073 13.88073 0 0012.04437 7.38416C83.74316 86.77539 90 79.99609 90 71.66309a15.26983 15.26983 0 00-3.646-9.834s-.30322-.3457-.354-.40625V59.24609a2 2 0 00-4 0v2.5166a4.06082 4.06082 0 001.27637 2.62109A11.38028 11.38028 0 0186 71.66309c0 6.127-4.4624 11.1123-9.94727 11.1123C70.50977 82.77539 66 77.77441 66 71.62793a2.0001 2.0001 0 00-2-2l-.02368.00238-.02368-.00238a2.0001 2.0001 0 00-2 2C61.95264 77.792 57.34912 83 51.8999 83c-5.48486 0-9.94727-5.00879-9.94727-11.166a11.46574 11.46574 0 012.72754-7.31934 3.85976 3.85976 0 00.77246-2.623V59.24609a2 2 0 00-4 0s.00391 2.81445.001 2.89551a15.3313 15.3313 0 00-3.501 9.69238C37.95264 80.19629 44.20947 87 51.8999 87z"></path><circle cx="50" cy="76" r="2"></circle><circle cx="78" cy="76" r="2"></circle><path d="M93.79108 101H6a2.00229 2.00229 0 01-2-2V97H91.59192a20.8085 20.8085 0 01-1.19922-4H2a2.0001 2.0001 0 00-2 2v4a6.00656 6.00656 0 006 6H97.43127A21.16027 21.16027 0 0193.79108 101zM12 28a2.00229 2.00229 0 012-2H114a2.00229 2.00229 0 012 2V68.62671a20.80843 20.80843 0 014 1.42841V28a6.00656 6.00656 0 00-6-6H14a6.00656 6.00656 0 00-6 6V89h4z"></path><path d="M111,72a17,17,0,1,0,17,17A17.019,17.019,0,0,0,111,72Zm0,30a13,13,0,1,1,13-13A13.01474,13.01474,0,0,1,111,102Z"></path><path d="M117.09814,86.47754,110.15039,82.001a3.00023,3.00023,0,0,0-4.62451,2.52246v8.95313a2.99776,2.99776,0,0,0,1.56341,2.63375,3.0702,3.0702,0,0,0,3.0611-.11129l6.94775-4.47656a3.00009,3.00009,0,0,0,0-5.04492Zm-7.57227,5.165V86.35742L113.62793,89Z"></path></svg>